<svg xmlns="http://www.w3.org/2000/svg" viewBox="0 0 206.42 459.26">
    <defs>
        <style>
            .car{fill:black;stroke:#000;stroke-width:0.15px;}
        </style>
    </defs>
    <g id="car" data-name="car">
        <path d="M202.91,213.12a20.52,20.52,0,0,0-6.18,1.58c-.35-60.29-.81-117.54-1.68-136.58-5-60-21-78-94-78s-82,23-88,77c-1.27,16-1.82,75.15-2,138.14a22.45,22.45,0,0,0-7.5-2.14c-4.29-.23-4.53,2.41-.56,5.93A30.79,30.79,0,0,0,11,224c-.22,72.31,0,147.33,0,166.49,0,6.11,1.58,12,3.36,17.86,10.66,34.8,55.66,36.8,90.66,50.8,33-16,65.7-18.23,78-33,10-12,15-32,14.71-50.86-.41-27.22-.64-90.25-1-151.9a30,30,0,0,0,6.69-4.31C207.45,215.53,207.2,212.89,202.91,213.12Zm-99.38-170c60.52,0,69.52,26,69.52,34.5s-3,32.5-68.48,32.5-69.52-25-69.52-32.5S43,43.12,103.53,43.12Zm65.52,80c0-1,2-11,3-11s2,12,2,13S169.05,124.12,169.05,123.12Zm8,17c2,14,5,83,5,83-1,0-5.67-14.08-11.79-43-.14-.65-2.21-45-2.21-45Zm-137-5s-2.07,44.34-2.21,45c-6.12,28.93-10.8,43-11.79,43,0,0,3-69,5-83Zm-6-10c0-1,1-13,2-13s3,10,3,11S34.05,126.12,34.05,125.12Zm15-110c-12,9-19,15.62-28,31C26.05,26.12,37.05,13.12,49.05,15.12Zm2.75,420c-3,1-10-2-12-9-2,8-12.36.76-15.87-6.7s-3.06-14.52,1-15.78,13,6.4,14.86,14.48c4-7,11.16-1,14,5S55.1,434.09,51.8,435.12Zm74.9-145.28-46-.23-5,3c-23-4.12-49-8.25-48.82-37.25l16.29-58.92c43.94,13.22,86,11.43,122,.61l14.73,54.07c5.86,28-25.17,41.88-49.2,41.76Zm57.22,129.58c-3.51,7.46-13.87,14.7-15.87,6.7-2,7-9,10-12,9-3.3-1-4.85-6-2-12s10-12,14-5c1.86-8.08,10.79-15.74,14.86-14.48S187.44,412,183.92,419.42ZM159.05,15.12c12-2,23,11,28,31C178.05,30.74,171.05,24.12,159.05,15.12Z" class="car"/>
    </g>
</svg>
